<svg height="512pt" viewBox="0 -15 512 512" width="512pt" xmlns="http://www.w3.org/2000/svg"><path d="m245 200h-220c-13.785156 0-25-11.214844-25-25v-140c0-13.785156 11.214844-25 25-25h220c13.785156 0 25 11.214844 25 25v140c0 13.785156-11.214844 25-25 25zm0-160h.011719zm0 0" fill="#9592a4"/><path d="m245 10h-110v190h110c13.785156 0 25-11.214844 25-25v-140c0-13.785156-11.214844-25-25-25zm0 0" fill="#807d8d"/><path d="m476 260h-160c-8.285156 0-15-6.714844-15-15v-50c0-52.382812 42.617188-95 95-95s95 42.617188 95 95v50c0 8.285156-6.714844 15-15 15zm0 0"/><path d="m175 260h-80c-8.285156 0-15-6.714844-15-15v-60c0-8.285156 6.714844-15 15-15h80c8.285156 0 15 6.714844 15 15v60c0 8.285156-6.714844 15-15 15zm0 0" fill="#aaa8b7"/><path d="m476 260h-160c-8.285156 0-15-6.714844-15-15v-50c0-52.382812 42.617188-95 95-95s95 42.617188 95 95v50c0 8.285156-6.714844 15-15 15zm0 0" fill="#0093ff"/><path d="m396 100v160h80c8.285156 0 15-6.714844 15-15v-50c0-52.382812-42.617188-95-95-95zm0 0" fill="#007def"/><path d="m175 170h-40v90h40c8.285156 0 15-6.714844 15-15v-60c0-8.285156-6.714844-15-15-15zm0 0" fill="#9592a4"/><path d="m396 130c-35.839844 0-65-29.160156-65-65s29.160156-65 65-65 65 29.160156 65 65-29.160156 65-65 65zm0 0" fill="#ffbeaa"/><path d="m396 0v130c35.839844 0 65-29.160156 65-65s-29.160156-65-65-65zm0 0" fill="#faa68f"/><path d="m497 482h-482c-8.285156 0-15-6.714844-15-15v-222c0-8.285156 6.714844-15 15-15h482c8.285156 0 15 6.714844 15 15v222c0 8.285156-6.714844 15-15 15zm0 0" fill="#d7f0f5"/><path d="m497 230h-241v252h241c8.285156 0 15-6.714844 15-15v-222c0-8.285156-6.714844-15-15-15zm0 0" fill="#c3e1eb"/></svg>